<?xml version="1.0" encoding="UTF-8" standalone="no"?>
<!-- Created with Inkscape (http://www.inkscape.org/) -->

<svg
   width="24"
   height="12"
   viewBox="0 0 6.3499998 3.175"
   version="1.1"
   id="svg5"
   xmlns="http://www.w3.org/2000/svg"
   xmlns:svg="http://www.w3.org/2000/svg">
  <defs
     id="defs2" />
  <g
     id="layer1">
    <path
       id="path523"
       style="fill:#000000;stroke-width:0.330728"
       d="M 0.66145833 0 A 0.66145831 0.66145831 0 0 0 0 0.66145833 A 0.66145831 0.66145831 0 0 0 0.66145833 1.3229167 A 0.66145831 0.66145831 0 0 0 1.3229167 0.66145833 A 0.66145831 0.66145831 0 0 0 0.66145833 0 z M 0.66145833 0.26458333 A 0.39687499 0.39687499 0 0 1 1.0583333 0.66145833 A 0.39687499 0.39687499 0 0 1 0.66145833 1.0583333 A 0.39687499 0.39687499 0 0 1 0.26458333 0.66145833 A 0.39687499 0.39687499 0 0 1 0.66145833 0.26458333 z " />
    <path
       id="path523-1"
       style="fill:#000000;stroke-width:0.330728"
       d="M 1.190625,1.8520833 A 0.66145831,0.66145831 0 0 0 0.52916667,2.5135416 0.66145831,0.66145831 0 0 0 1.190625,3.175 0.66145831,0.66145831 0 0 0 1.8520834,2.5135416 0.66145831,0.66145831 0 0 0 1.190625,1.8520833 Z m 0,0.2645833 A 0.39687499,0.39687499 0 0 1 1.5875,2.5135416 0.39687499,0.39687499 0 0 1 1.190625,2.9104166 0.39687499,0.39687499 0 0 1 0.79374997,2.5135416 0.39687499,0.39687499 0 0 1 1.190625,2.1166666 Z" />
    <path
       id="path523-1-2"
       style="fill:#000000;stroke-width:0.330728"
       d="M 4.8947917,0 A 0.66145831,0.66145831 0 0 0 4.2333333,0.6614583 0.66145831,0.66145831 0 0 0 4.8947917,1.3229167 0.66145831,0.66145831 0 0 0 5.5562501,0.6614583 0.66145831,0.66145831 0 0 0 4.8947917,0 Z m 0,0.2645833 a 0.39687499,0.39687499 0 0 1 0.396875,0.396875 0.39687499,0.39687499 0 0 1 -0.396875,0.396875 0.39687499,0.39687499 0 0 1 -0.3968751,-0.396875 0.39687499,0.39687499 0 0 1 0.3968751,-0.396875 z" />
    <path
       id="path523-1-2-7"
       style="fill:#000000;stroke-width:0.330728"
       d="M 3.8364583,1.8520832 A 0.66145831,0.66145831 0 0 0 3.1749999,2.5135415 0.66145831,0.66145831 0 0 0 3.8364583,3.175 0.66145831,0.66145831 0 0 0 4.4979167,2.5135415 0.66145831,0.66145831 0 0 0 3.8364583,1.8520832 Z m 0,0.2645833 a 0.39687499,0.39687499 0 0 1 0.396875,0.396875 0.39687499,0.39687499 0 0 1 -0.396875,0.396875 0.39687499,0.39687499 0 0 1 -0.3968751,-0.396875 0.39687499,0.39687499 0 0 1 0.3968751,-0.396875 z" />
    <path
       id="path523-1-2-7-0"
       style="fill:#000000;stroke-width:0.330728"
       d="M 3.3072916,0 A 0.66145831,0.66145831 0 0 0 2.6458332,0.6614583 0.66145831,0.66145831 0 0 0 3.3072916,1.3229168 0.66145831,0.66145831 0 0 0 3.96875,0.6614583 0.66145831,0.66145831 0 0 0 3.3072916,0 Z m 0,0.2645833 a 0.39687499,0.39687499 0 0 1 0.396875,0.396875 0.39687499,0.39687499 0 0 1 -0.396875,0.396875 0.39687499,0.39687499 0 0 1 -0.3968751,-0.396875 0.39687499,0.39687499 0 0 1 0.3968751,-0.396875 z" />
    <rect
       style="fill:#000000;stroke-width:0.24153"
       id="rect662"
       width="0.26458332"
       height="1.3229166"
       x="0"
       y="1.8520833" />
    <rect
       style="fill:#000000;stroke-width:0.24153"
       id="rect662-6"
       width="0.26458332"
       height="1.3229166"
       x="1.5875"
       y="0" />
    <rect
       style="fill:#000000;stroke-width:0.24153"
       id="rect662-6-2"
       width="0.26458332"
       height="1.3229166"
       x="2.1166668"
       y="3.9736431e-08" />
    <rect
       style="fill:#000000;stroke-width:0.24153"
       id="rect662-6-2-9"
       width="0.26458332"
       height="1.3229166"
       x="2.1166668"
       y="1.8520833" />
    <rect
       style="fill:#000000;stroke-width:0.24153"
       id="rect662-6-2-9-3"
       width="0.26458332"
       height="1.3229166"
       x="2.6458333"
       y="1.8520833" />
    <rect
       style="fill:#000000;stroke-width:0.24153"
       id="rect662-6-2-9-3-62"
       width="0.26458332"
       height="1.3229166"
       x="5.2916665"
       y="1.8520833" />
    <rect
       style="fill:#000000;stroke-width:0.24153"
       id="rect662-6-2-9-3-62-6"
       width="0.26458332"
       height="1.3229166"
       x="5.8208332"
       y="1.8520833" />
    <rect
       style="fill:#000000;stroke-width:0.24153"
       id="rect662-6-2-9-3-6"
       width="0.26458332"
       height="1.3229166"
       x="4.7624998"
       y="1.8520833" />
    <rect
       style="fill:#000000;stroke-width:0.24153"
       id="rect662-6-2-0"
       width="0.26458332"
       height="1.3229166"
       x="5.8208332"
       y="3.9736431e-08" />
  </g>
</svg>
