<?xml version="1.0" encoding="UTF-8" standalone="no"?>
<svg
   version="1.1"
   width="12"
   height="12"
   id="svg1202"
   sodipodi:docname="help.svg"
   inkscape:version="1.2.2 (b0a8486541, 2022-12-01)"
   inkscape:export-filename="help.png"
   inkscape:export-xdpi="96"
   inkscape:export-ydpi="96"
   xmlns:inkscape="http://www.inkscape.org/namespaces/inkscape"
   xmlns:sodipodi="http://sodipodi.sourceforge.net/DTD/sodipodi-0.dtd"
   xmlns="http://www.w3.org/2000/svg"
   xmlns:svg="http://www.w3.org/2000/svg">
  <defs
     id="defs1206" />
  <sodipodi:namedview
     id="namedview1204"
     pagecolor="#ffffff"
     bordercolor="#000000"
     borderopacity="0.25"
     inkscape:showpageshadow="2"
     inkscape:pageopacity="0.0"
     inkscape:pagecheckerboard="0"
     inkscape:deskcolor="#d1d1d1"
     showgrid="true"
     inkscape:zoom="30"
     inkscape:cx="5.5166667"
     inkscape:cy="6"
     inkscape:window-width="1280"
     inkscape:window-height="987"
     inkscape:window-x="0"
     inkscape:window-y="0"
     inkscape:window-maximized="1"
     inkscape:current-layer="svg1202">
    <inkscape:grid
       type="xygrid"
       id="grid1210"
       spacingy="0.5"
       spacingx="0.5" />
  </sodipodi:namedview>
  <path
     id="path1214"
     style="fill:#000000"
     d="M 6 0 A 6 6 0 0 0 0 6 A 6 6 0 0 0 6 12 A 6 6 0 0 0 12 6 A 6 6 0 0 0 6 0 z M 6 1 A 5 5 0 0 1 11 6 A 5 5 0 0 1 6 11 A 5 5 0 0 1 1 6 A 5 5 0 0 1 6 1 z " />
  <rect
     style="fill:#000000"
     id="rect1522"
     width="1"
     height="1.5"
     x="5.5"
     y="8.5" />
  <path
     id="rect1529"
     d="m 5.5,6 2,-1 V 4 L 6.5,3.5 H 5 v -1 h 2 l 1.5,1 v 2 l -2,1 v 1 h -1 z"
     sodipodi:nodetypes="ccccccccccccc" />
</svg>
