<?xml version="1.0" encoding="UTF-8" standalone="no"?>
<svg
   xmlns="http://www.w3.org/2000/svg"
   id="svg8"
   version="1.1"
   viewBox="0 0 4.2333332 4.2333334"
   height="16"
   width="16">
  <defs
     id="defs2" />
  <g
     transform="translate(0,-292.76665)"
     id="layer1">
    <path
       id="rect3718"
       transform="matrix(0.26458333,0,0,0.26458333,0,292.76665)"
       d="M 4.015625 0.001953125 L 4.0078125 0.00390625 C 1.9543502 -0.030109498 0.19389323 1.5585522 0.021484375 3.6054688 L 0.015625 3.6367188 L 0.015625 3.6660156 C -0.019708707 5.1239306 0.0089561953 6.5632082 0 7.9765625 C -0.050325732 10.037652 1.5611711 11.823594 3.6171875 11.984375 L 3.6386719 11.984375 L 3.6679688 11.984375 C 5.1234239 12.018391 6.5598012 11.992441 7.9726562 12 C 10.033705 12.050268 11.819617 10.438762 11.980469 8.3828125 L 11.980469 8.359375 L 11.980469 8.3300781 C 11.991364 7.8799438 11.985715 7.4460103 11.988281 7 L 9.9921875 7 C 9.9904579 7.4067187 9.9975276 7.82654 9.9882812 8.2285156 C 9.9162094 9.1497377 8.9475441 10.022564 8.0234375 10 L 8.0175781 10 L 8.0019531 10 C 6.5679573 9.9924409 5.1560004 10.014611 3.765625 9.984375 C 2.8484937 9.9057608 1.9775253 8.9478099 2 8.0273438 L 2 8.0136719 L 2 8.0058594 C 2.0093468 6.5725113 1.9837409 5.1621371 2.015625 3.7753906 C 2.0955817 2.8261245 3.0246061 1.9786323 3.9785156 1.9960938 L 3.9863281 1.9960938 L 3.9941406 1.9960938 C 5.4281365 2.0036528 6.8400932 1.9814825 8.2304688 2.0117188 C 8.8180679 2.0577674 9.38442 2.4690541 9.7128906 3 L 11.873047 3 C 11.471644 1.4041112 10.089566 0.15074126 8.3867188 0.017578125 L 8.3554688 0.017578125 L 8.3339844 0.017578125 C 6.8735364 -0.016437623 5.4331689 0.0095121801 4.015625 0.001953125 z "
       style="color:#000000;font-style:normal;font-variant:normal;font-weight:normal;font-stretch:normal;font-size:medium;line-height:normal;font-family:sans-serif;font-variant-ligatures:normal;font-variant-position:normal;font-variant-caps:normal;font-variant-numeric:normal;font-variant-alternates:normal;font-feature-settings:normal;text-indent:0;text-align:start;text-decoration:none;text-decoration-line:none;text-decoration-style:solid;text-decoration-color:#000000;letter-spacing:normal;word-spacing:normal;text-transform:none;writing-mode:lr-tb;direction:ltr;text-orientation:mixed;dominant-baseline:auto;baseline-shift:baseline;text-anchor:start;white-space:normal;shape-padding:0;clip-rule:nonzero;display:inline;overflow:visible;visibility:visible;opacity:1;isolation:auto;mix-blend-mode:normal;color-interpolation:sRGB;color-interpolation-filters:linearRGB;solid-color:#000000;solid-opacity:1;vector-effect:none;fill:#000000;fill-opacity:1;fill-rule:nonzero;stroke:none;stroke-width:2.00000024;stroke-linecap:butt;stroke-linejoin:miter;stroke-miterlimit:4;stroke-dasharray:none;stroke-dashoffset:0;stroke-opacity:1;color-rendering:auto;image-rendering:auto;shape-rendering:auto;text-rendering:auto;enable-background:accumulate" />
    <path
       id="rect3718-5"
       transform="matrix(0.26458333,0,0,0.26458333,0,292.76665)"
       d="M 8.0058594 3.984375 L 7.9980469 3.9863281 C 5.9445842 3.9523124 4.1841272 5.5409741 4.0117188 7.5878906 L 4.0039062 7.6191406 L 4.0039062 7.6484375 C 3.9928259 8.1055647 3.9995601 8.5468889 3.9980469 9 L 6 9 C 6.0016873 8.588828 5.9945397 8.1650011 6.0039062 7.7578125 C 6.0838622 6.8085464 7.0148396 5.9610542 7.96875 5.9785156 L 7.9746094 5.9785156 L 7.9824219 5.9785156 C 9.4164177 5.9860747 10.830328 5.9639044 12.220703 5.9941406 C 13.141864 6.0663296 14.014751 7.0329368 13.992188 7.9570312 L 13.992188 7.9648438 L 13.992188 7.9726562 C 13.982814 9.4060421 14.008462 10.824153 13.976562 12.210938 C 13.904491 13.13216 12.937778 14.004986 12.013672 13.982422 L 12.005859 13.982422 L 11.990234 13.982422 C 10.556239 13.974863 9.1442818 13.997033 7.7539062 13.966797 C 7.1757232 13.917236 6.6178647 13.518566 6.2890625 13 L 4.1230469 13 C 4.5296328 14.588399 5.908198 15.83407 7.6054688 15.966797 L 7.6289062 15.966797 L 7.6582031 15.966797 C 9.1136576 16.000813 10.548082 15.974863 11.960938 15.982422 C 14.021986 16.03269 15.809851 14.421184 15.970703 12.365234 L 15.970703 12.341797 L 15.970703 12.3125 C 16.005966 10.855681 15.983343 9.4188235 15.992188 8.0078125 C 16.042508 5.9467605 14.431016 4.1607811 12.375 4 L 12.345703 4 L 12.324219 4 C 10.86377 3.9659843 9.4234037 3.9919341 8.0058594 3.984375 z "
       style="color:#000000;font-style:normal;font-variant:normal;font-weight:normal;font-stretch:normal;font-size:medium;line-height:normal;font-family:sans-serif;font-variant-ligatures:normal;font-variant-position:normal;font-variant-caps:normal;font-variant-numeric:normal;font-variant-alternates:normal;font-feature-settings:normal;text-indent:0;text-align:start;text-decoration:none;text-decoration-line:none;text-decoration-style:solid;text-decoration-color:#000000;letter-spacing:normal;word-spacing:normal;text-transform:none;writing-mode:lr-tb;direction:ltr;text-orientation:mixed;dominant-baseline:auto;baseline-shift:baseline;text-anchor:start;white-space:normal;shape-padding:0;clip-rule:nonzero;display:inline;overflow:visible;visibility:visible;opacity:1;isolation:auto;mix-blend-mode:normal;color-interpolation:sRGB;color-interpolation-filters:linearRGB;solid-color:#000000;solid-opacity:1;vector-effect:none;fill:#000000;fill-opacity:1;fill-rule:nonzero;stroke:none;stroke-width:2.00000024;stroke-linecap:butt;stroke-linejoin:miter;stroke-miterlimit:4;stroke-dasharray:none;stroke-dashoffset:0;stroke-opacity:1;color-rendering:auto;image-rendering:auto;shape-rendering:auto;text-rendering:auto;enable-background:accumulate" />
  </g>
</svg>
