<?xml version="1.0" encoding="UTF-8" standalone="no"?>
<svg
   version="1.1"
   width="12"
   height="12"
   color-interpolation="linearRGB"
   id="svg404"
   sodipodi:docname="X0Xm.svg"
   xmlns:inkscape="http://www.inkscape.org/namespaces/inkscape"
   xmlns:sodipodi="http://sodipodi.sourceforge.net/DTD/sodipodi-0.dtd"
   xmlns="http://www.w3.org/2000/svg"
   xmlns:svg="http://www.w3.org/2000/svg">
  <defs
     id="defs408" />
  <sodipodi:namedview
     id="namedview406"
     pagecolor="#ffffff"
     bordercolor="#000000"
     borderopacity="0.25"
     inkscape:showpageshadow="2"
     inkscape:pageopacity="0.0"
     inkscape:pagecheckerboard="0"
     inkscape:deskcolor="#d1d1d1"
     showgrid="false" />
  <g
     id="g3292">
    <path
       id="path391"
       style="fill:#000000;stroke-width:0.230769"
       d="M 6,0 C 2.6838494,0 0,2.6838494 0,6 0,9.3115352 2.6838494,12 6,12 9.3115352,12 12,9.3115352 12,6 12,2.6838494 9.3115352,0 6,0 Z m 0,1.6153846 c 0,0 1.3846154,1.3846179 1.3846154,3.8076923 0.692307,-1.384614 2.4230769,-1.7307692 2.4230769,-1.7307692 0,0 0.3461517,2.076924 -1.7307692,3.1153846 0,0 2.1e-6,0.3461539 2.0769229,0.3461539 0,0 -1.0384642,2.0769223 -3.8076922,1.3846153 V 9.9230769 H 5.6538462 V 8.5384615 C 2.8846182,9.2307685 1.8461538,7.1538462 1.8461538,7.1538462 c 2.076921,0 2.0769231,-0.3461539 2.0769231,-0.3461539 C 1.8461559,5.7692317 2.190054,3.6923077 2.190054,3.6923077 c 0,0 1.7330236,0.3461552 2.4253306,1.7307692 C 4.6153846,3.0000025 6,1.6153846 6,1.6153846 Z" />
  </g>
</svg>
